<svg xmlns="http://www.w3.org/2000/svg" width="20" height="20" viewBox="0 0 20 20" aria-hidden="true" focusable="false">
  <path fill="#f0f0f1" d="M7.17 1.872 C6.021 2.592 4.011 4.152 2.957 4.936 C1.904 5.72 1.202 6.266 0.851 6.574 C0.5 6.883 0.521 6.543 0.851 6.787 C1.181 7.032 1.84 7.45 2.83 8.043 C3.819 8.635 5.77 9.759 6.787 10.34 C7.805 10.922 8.521 11.319 8.936 11.532 C9.351 11.745 9.053 11.688 9.277 11.617 C9.5 11.546 9.833 11.376 10.277 11.106 C10.72 10.837 11.521 10.291 11.936 10 C12.351 9.709 12.628 9.496 12.766 9.362 C12.904 9.227 12.922 9.344 12.766 9.191 C12.61 9.039 12.298 8.791 11.83 8.447 C11.362 8.103 10.422 7.468 9.957 7.128 C9.493 6.787 9.188 6.546 9.043 6.404 C8.897 6.262 8.979 6.294 9.085 6.277 C9.191 6.259 9.39 6.266 9.681 6.298 C9.972 6.33 10.408 6.426 10.83 6.468 C11.252 6.511 11.713 6.539 12.213 6.553 C12.713 6.567 13.273 6.589 13.83 6.553 C14.387 6.518 14.961 6.447 15.553 6.34 C16.145 6.234 16.918 6.035 17.383 5.915 C17.848 5.794 18.167 5.695 18.34 5.617 C18.514 5.539 18.553 5.567 18.426 5.447 C18.298 5.326 18.014 5.142 17.574 4.894 C17.135 4.645 16.312 4.184 15.787 3.957 C15.262 3.73 14.809 3.589 14.426 3.532 C14.043 3.475 13.897 3.557 13.489 3.617 C13.082 3.677 12.578 3.77 11.979 3.894 C11.379 4.018 10.418 4.255 9.894 4.362 C9.369 4.468 9.014 4.525 8.83 4.532 C8.645 4.539 8.67 4.535 8.787 4.404 C8.904 4.273 9.152 4.053 9.532 3.745 C9.911 3.436 10.691 2.872 11.064 2.553 C11.436 2.234 11.67 1.993 11.766 1.83 C11.862 1.667 11.766 1.684 11.638 1.574 C11.511 1.465 11.298 1.33 11 1.17 C10.702 1.011 10.489 0.5 9.851 0.617 C9.213 0.734 8.319 1.152 7.17 1.872 Z M19.191 8.766 C19.181 8.699 19.177 8.667 19.106 8.596 C19.035 8.525 18.922 8.44 18.766 8.34 C18.61 8.241 18.351 8.089 18.17 8 C17.989 7.911 17.826 7.848 17.681 7.809 C17.535 7.77 17.709 7.567 17.298 7.766 C16.887 7.965 16.191 8.376 15.213 9 C14.234 9.624 12.39 10.883 11.426 11.511 C10.461 12.138 9.794 12.557 9.426 12.766 C9.057 12.975 9.532 12.911 9.213 12.766 C8.894 12.621 8.326 12.33 7.511 11.894 C6.695 11.457 5.181 10.55 4.319 10.149 C3.457 9.748 2.798 9.528 2.34 9.489 C1.883 9.45 1.78 9.794 1.574 9.915 C1.369 10.035 1.213 10.135 1.106 10.213 C1 10.291 0.979 10.326 0.936 10.383 C0.894 10.44 0.865 10.496 0.851 10.553 C0.837 10.61 0.826 10.66 0.851 10.723 C0.876 10.787 0.926 10.858 1 10.936 C1.074 11.014 0.904 10.95 1.298 11.191 C1.691 11.433 2.379 11.83 3.362 12.383 C4.344 12.936 6.213 13.979 7.191 14.511 C8.17 15.043 8.851 15.397 9.234 15.574 C9.617 15.752 9.035 15.83 9.489 15.574 C9.943 15.319 10.766 14.809 11.957 14.043 C13.149 13.277 15.457 11.77 16.638 10.979 C17.819 10.188 18.621 9.628 19.043 9.298 C19.465 8.968 19.145 9.089 19.17 9 C19.195 8.911 19.202 8.833 19.191 8.766 Z M18.851 12.681 C18.667 12.528 18.305 12.298 18.085 12.17 C17.865 12.043 17.681 11.957 17.532 11.915 C17.383 11.872 17.585 11.713 17.191 11.915 C16.798 12.117 16.124 12.521 15.17 13.128 C14.216 13.734 12.429 14.954 11.468 15.553 C10.507 16.152 9.819 16.543 9.404 16.723 C8.989 16.904 9.33 16.798 8.979 16.638 C8.628 16.479 8.067 16.188 7.298 15.766 C6.528 15.344 5.113 14.521 4.362 14.106 C3.61 13.691 3.085 13.415 2.787 13.277 C2.489 13.138 2.688 13.238 2.574 13.277 C2.461 13.316 2.305 13.394 2.106 13.511 C1.908 13.628 1.567 13.833 1.383 13.979 C1.199 14.124 1.071 14.259 1 14.383 C0.929 14.507 0.649 14.454 0.957 14.723 C1.266 14.993 1.897 15.418 2.851 16 C3.805 16.582 5.677 17.649 6.681 18.213 C7.684 18.777 8.415 19.167 8.872 19.383 C9.33 19.599 8.897 19.73 9.426 19.511 C9.954 19.291 10.826 18.809 12.043 18.064 C13.259 17.319 15.546 15.823 16.723 15.043 C17.901 14.262 18.695 13.709 19.106 13.383 C19.518 13.057 19.234 13.202 19.191 13.085 C19.149 12.968 19.035 12.833 18.851 12.681 Z"/>
</svg>
